# xmcd
#
# Track frame offsets: 
#        150
#        47395
#        81012
#        121697
#        139802
#        172370
#        216015
#        285272
#
# Disc length: 4393 seconds
#
# Revision: 2
# Processed by: cddbd v1.5.2PL0 Copyright (c) Steve Scherf et al.
# Submitted via: ExactAudioCopy v0.99pb4
#
DISCID=68112708
DTITLE=Engerling - Engerling
DYEAR=1994
DGENRE=Blues
TTITLE0=Little Red Rooster - Albatross
TTITLE1=Tommy Simpson
TTITLE2=Narkose Blues
TTITLE3=Mary
TTITLE4=Not Fade Away
TTITLE5=Moll Blues
TTITLE6=Riders on the Storm
TTITLE7=Mama Wilson
EXTD=
EXTT0=
EXTT1=
EXTT2=
EXTT3=
EXTT4=
EXTT5=
EXTT6=
EXTT7=
PLAYORDER=
